<svg id="Calque_1" data-name="Calque 1" xmlns="http://www.w3.org/2000/svg" viewBox="0 0 1597.18 560.39"><defs><style>.cls-1{fill:#fff;}.cls-2{fill:#f58c03;}</style></defs><path class="cls-1" d="M466.1,367.3h55.6V318.4s15.6-19.4,83.4-24V265.5c-64.8,3.5-82.2,14.7-82.2,14.7V233h99.6V206.4H466.1Z" transform="translate(-1.42 -0.04)"/><path class="cls-1" d="M812.6,339.3h-99v-20s7.8-21.7,82.5-26.9V263.7s-46.9,1.5-82.5,16.4V233.3h99V206.4H657.2v161H812.7V339.3Z" transform="translate(-1.42 -0.04)"/><path class="cls-1" d="M913.3,245.5s106,31.3,106,93.8v28.1h57.3v-161h-54.7v50.4s-53.8-35.6-108.6-39.9V206.5H858.6v161h54.7Z" transform="translate(-1.42 -0.04)"/><path class="cls-1" d="M1220.8,367.3s86,.6,99.9-44.6V206.4h-55.6V323.6a19.27,19.27,0,0,1-2.8,6c-3.1,4.4-9.5,9.3-41.9,9.8-33.7.5-39.8-4.7-42.6-8.6a16.78,16.78,0,0,1-3-7.2V206.4H1120v119S1127.9,367.3,1220.8,367.3Z" transform="translate(-1.42 -0.04)"/><path class="cls-1" d="M1542.4,367.3h56.2l-84-161h-74.7l-102.5,161h59.1l30.1-52.7s38.8-4.6,73,8.7S1542.4,367.3,1542.4,367.3Zm-67.7-125.6,28.9,50.4s-34.2-7.5-55.6-8.7Z" transform="translate(-1.42 -0.04)"/><path class="cls-1" d="M466.1,546.8h48.4V503.4s-.7-25.7,70-29.1V443.8s-50.6,4.2-71.4,15.3V415.4h85.3V387H466.1Z" transform="translate(-1.42 -0.04)"/><rect class="cls-1" x="628.88" y="386.96" width="47.1" height="159.8"/><polygon class="cls-1" points="712.68 415.96 761.98 415.96 761.98 546.76 817.38 546.76 817.38 416.66 864.58 416.66 864.58 386.96 712.68 386.96 712.68 415.96"/><path class="cls-1" d="M1039.3,438.9s-49.2-42.3-95-41.6V387H898.5V546.8H945V427.1s92.2,18.2,93.6,119.7h47.1V387h-46.5v51.9Z" transform="translate(-1.42 -0.04)"/><path class="cls-1" d="M1125.3,546.8h132.4V520H1171V498.5s13.2-20.8,72.1-24.3V444.4s-46.5.7-73.5,16.6V414.5h88V387H1125.2V546.8Z" transform="translate(-1.42 -0.04)"/><path class="cls-1" d="M1381.1,458.3c-43.7-16.6-48.5-20.8-43.7-33.3s52.7-15.9,79.7-11.1V391.1l-.7-.1s-45.1-11.8-88.7,0-58.9,56-12.5,75.9,71.4,26.8,65.2,37.8-5.5,18-80.4,16.6v25.4s78.3,7.9,108.8-12.2S1438.6,481.2,1381.1,458.3Z" transform="translate(-1.42 -0.04)"/><path class="cls-1" d="M1550.8,458.3c-43.7-16.6-48.5-20.8-43.7-33.3s52.7-15.9,79.7-11.1V391.1l-.7-.1s-45.1-11.8-88.7,0-58.9,56-12.5,75.9,71.4,26.8,65.2,37.8-5.5,18-80.4,16.6v25.4s78.3,7.9,108.8-12.2S1608.3,481.2,1550.8,458.3Z" transform="translate(-1.42 -0.04)"/><path class="cls-2" d="M384.6,265.8,307.9,558.2a3,3,0,0,1-3.2,2.2L66.1,528.2a3,3,0,0,1-2.3-4.1L148.2,334s-41.7-25.2-46.9-110.3L3.2,109.1s-6.1-8.7,4.3-15.6,53-15.6,82.5,13,68.6,79.9,68.6,79.9,105.1,30.2,106.8,93.7v3l16.1,3.8s17.8-21.4,2.6-46.6l98.2,21.9A2.93,2.93,0,0,1,384.6,265.8Z" transform="translate(-1.42 -0.04)"/><path class="cls-2" d="M390.1,247.6,499.3,21.1a4.79,4.79,0,0,0-2.8-6.7L455.5.3a4.83,4.83,0,0,0-6,2.6L342.3,234.4a4.88,4.88,0,0,0,3.3,6.8l39,9A4.85,4.85,0,0,0,390.1,247.6Z" transform="translate(-1.42 -0.04)"/><path class="cls-2" d="M319.3,234.5l-46.7-11.9a4.89,4.89,0,0,1-3.2-6.8L333.3,82.7a5.1,5.1,0,0,1,5.5-2.7l43.8,9.6a4.89,4.89,0,0,1,3.4,6.8L325,231.8A5,5,0,0,1,319.3,234.5Z" transform="translate(-1.42 -0.04)"/><path class="cls-2" d="M255.9,196.7l-43.7-11.4a4.89,4.89,0,0,1-3.2-6.8L272.4,46.8a4.93,4.93,0,0,1,5.7-2.6l40.5,11.3a4.81,4.81,0,0,1,3.1,6.7L261.5,194A4.81,4.81,0,0,1,255.9,196.7Z" transform="translate(-1.42 -0.04)"/><path class="cls-2" d="M195.1,166.7,251.6,48.4a4.9,4.9,0,0,0-3.1-6.8L210.3,30.8a4.93,4.93,0,0,0-5.7,2.6L148.5,152.1a4.9,4.9,0,0,0,3.1,6.8l37.8,10.4A4.93,4.93,0,0,0,195.1,166.7Z" transform="translate(-1.42 -0.04)"/><polygon class="cls-1" points="6.08 106.16 26.38 96.36 47.78 127.66 23.48 103.26 6.08 106.16"/><polygon class="cls-1" points="155.48 143.86 164.18 127.66 191.58 135.76 164.38 131.06 155.48 143.86"/><polygon class="cls-1" points="219.68 169.36 228.38 153.16 255.78 161.26 228.58 156.56 219.68 169.36"/><polygon class="cls-1" points="277.58 212.96 286.28 196.76 313.68 204.86 286.48 200.16 277.58 212.96"/></svg>