<?xml version="1.0" encoding="utf-8"?>
<!-- Generator: Adobe Illustrator 25.0.0, SVG Export Plug-In . SVG Version: 6.00 Build 0)  -->
<svg version="1.1" id="Calque_1" xmlns="http://www.w3.org/2000/svg" xmlns:xlink="http://www.w3.org/1999/xlink" x="0px" y="0px"
	 viewBox="0 0 1600 560.4" style="enable-background:new 0 0 1600 560.4;" xml:space="preserve">
<style type="text/css">
	.st0{fill:#060908;}
	.st1{fill:#F58C03;}
	.st2{fill:#FFFFFF;}
</style>
<g>
	<g>
		<path class="st0" d="M466.1,367.3h55.6v-48.9c0,0,15.6-19.4,83.4-24v-28.9c-64.8,3.5-82.2,14.7-82.2,14.7V233h99.6v-26.6H466.1
			V367.3z"/>
		<path class="st0" d="M812.6,339.3h-99v-20c0,0,7.8-21.7,82.5-26.9v-28.7c0,0-46.9,1.5-82.5,16.4v-46.8h99v-26.9H657.2v161h155.5
			V339.3z"/>
		<path class="st0" d="M913.3,245.5c0,0,106,31.3,106,93.8v28.1h57.3v-161h-54.7v50.4c0,0-53.8-35.6-108.6-39.9v-10.4h-54.7v161
			h54.7V245.5z"/>
		<path class="st0" d="M1220.8,367.3c0,0,86,0.6,99.9-44.6V206.4h-55.6v117.2c-0.4,1.5-1.2,3.7-2.8,6c-3.1,4.4-9.5,9.3-41.9,9.8
			c-33.7,0.5-39.8-4.7-42.6-8.6c-1.9-2.6-2.7-5.3-3-7.2V206.4H1120v119C1120,325.4,1127.9,367.3,1220.8,367.3z"/>
		<path class="st0" d="M1542.4,367.3h56.2l-84-161h-74.7l-102.5,161h59.1l30.1-52.7c0,0,38.8-4.6,73,8.7
			C1533.7,336.7,1542.4,367.3,1542.4,367.3z M1474.7,241.7l28.9,50.4c0,0-34.2-7.5-55.6-8.7L1474.7,241.7z"/>
		<path class="st0" d="M466.1,546.8h48.4v-43.4c0,0-0.7-25.7,70-29.1v-30.5c0,0-50.6,4.2-71.4,15.3v-43.7h85.3V387H466.1V546.8z"/>
		<rect x="630.3" y="387" class="st0" width="47.1" height="159.8"/>
		<polygon class="st0" points="714.1,416 763.4,416 763.4,546.8 818.8,546.8 818.8,416.7 866,416.7 866,387 714.1,387 		"/>
		<path class="st0" d="M1039.3,438.9c0,0-49.2-42.3-95-41.6V387h-45.8v159.8H945V427.1c0,0,92.2,18.2,93.6,119.7h47.1V387h-46.5
			V438.9z"/>
		<path class="st0" d="M1125.3,546.8h132.4V520H1171v-21.5c0,0,13.2-20.8,72.1-24.3v-29.8c0,0-46.5,0.7-73.5,16.6v-46.5h88V387
			h-132.4V546.8z"/>
		<path class="st0" d="M1381.1,458.3c-43.7-16.6-48.5-20.8-43.7-33.3c4.8-12.5,52.7-15.9,79.7-11.1v-22.8l-0.7-0.1
			c0,0-45.1-11.8-88.7,0c-43.7,11.8-58.9,56-12.5,75.9c46.5,19.8,71.4,26.8,65.2,37.8c-6.2,11.1-5.5,18-80.4,16.6v25.4
			c0,0,78.3,7.9,108.8-12.2C1439.3,514.5,1438.6,481.2,1381.1,458.3z"/>
		<path class="st0" d="M1550.8,458.3c-43.7-16.6-48.5-20.8-43.7-33.3c4.8-12.5,52.7-15.9,79.7-11.1v-22.8l-0.7-0.1
			c0,0-45.1-11.8-88.7,0c-43.7,11.8-58.9,56-12.5,75.9s71.4,26.8,65.2,37.8c-6.2,11.1-5.5,18-80.4,16.6v25.4
			c0,0,78.3,7.9,108.8-12.2C1609,514.5,1608.3,481.2,1550.8,458.3z"/>
	</g>
	<path class="st1" d="M384.6,265.8l-76.7,292.4c-0.4,1.4-1.8,2.4-3.2,2.2L66.1,528.2c-1.9-0.3-3.1-2.3-2.3-4.1l84.4-190.1
		c0,0-41.7-25.2-46.9-110.3L3.2,109.1c0,0-6.1-8.7,4.3-15.6c10.4-6.9,53-15.6,82.5,13s68.6,79.9,68.6,79.9s105.1,30.2,106.8,93.7v3
		l16.1,3.8c0,0,17.8-21.4,2.6-46.6l98.2,21.9C384,262.5,385,264.2,384.6,265.8z"/>
	<path class="st1" d="M390.1,247.6L499.3,21.1c1.3-2.6,0-5.8-2.8-6.7l-41-14.1c-2.4-0.8-5,0.3-6,2.6L342.3,234.4
		c-1.3,2.8,0.3,6.1,3.3,6.8l39,9C386.8,250.7,389.1,249.7,390.1,247.6z"/>
	<path class="st1" d="M319.3,234.5l-46.7-11.9c-3-0.8-4.5-4.1-3.2-6.8l63.9-133.1c1-2,3.2-3.1,5.5-2.7l43.8,9.6
		c3,0.7,4.7,3.9,3.4,6.8l-61,135.4C323.9,233.9,321.6,235.1,319.3,234.5z"/>
	<path class="st1" d="M255.9,196.7l-43.7-11.4c-3-0.8-4.5-4.1-3.2-6.8l63.4-131.7c1-2.1,3.4-3.2,5.7-2.6l40.5,11.3
		c2.9,0.8,4.4,4,3.1,6.7L261.5,194C260.6,196.1,258.2,197.3,255.9,196.7z"/>
	<path class="st1" d="M195.1,166.7l56.5-118.3c1.3-2.7-0.2-6-3.1-6.8l-38.2-10.8c-2.3-0.6-4.7,0.5-5.7,2.6l-56.1,118.7
		c-1.3,2.7,0.2,6,3.1,6.8l37.8,10.4C191.7,169.9,194.1,168.8,195.1,166.7z"/>
	<polygon class="st2" points="7.5,106.2 27.8,96.4 49.2,127.7 24.9,103.3 	"/>
	<polygon class="st2" points="156.9,143.9 165.6,127.7 193,135.8 165.8,131.1 	"/>
	<polygon class="st2" points="221.1,169.4 229.8,153.2 257.2,161.3 230,156.6 	"/>
	<polygon class="st2" points="279,213 287.7,196.8 315.1,204.9 287.9,200.2 	"/>
</g>
</svg>
